<?xml version="1.0" encoding="utf-8"?>
<!-- Generator: Adobe Illustrator 21.1.0, SVG Export Plug-In . SVG Version: 6.00 Build 0)  -->
<svg version="1.1" id="Livello_1" xmlns="http://www.w3.org/2000/svg" xmlns:xlink="http://www.w3.org/1999/xlink" x="0px" y="0px"
	 viewBox="0 0 383.4 272.5" style="enable-background:new 0 0 383.4 272.5;" xml:space="preserve">
<style type="text/css">
	.st0{fill:#FFFFFF;}
	.st1{fill:none;stroke:#FFFFFF;stroke-linecap:round;stroke-linejoin:round;}
	.st2{fill:none;stroke:#FFFFFF;stroke-linecap:round;stroke-linejoin:round;stroke-dasharray:0,2.9759;}
	.st3{fill:none;stroke:#FFFFFF;stroke-linecap:round;stroke-linejoin:round;stroke-miterlimit:10;stroke-dasharray:0,3;}
</style>
<g>
	<g>
		<g>
			<path class="st0" d="M239.6,149.7h-42.7c-2.2,0-4-1.8-4-4v-5.2c0-2.2,1.8-4,4-4h42.7c2.2,0,4,1.8,4,4v5.2
				C243.6,147.8,241.8,149.7,239.6,149.7z M196.9,138.6c-1,0-1.8,0.8-1.8,1.8v5.2c0,1,0.8,1.8,1.8,1.8h42.7c1,0,1.8-0.8,1.8-1.8
				v-5.2c0-1-0.8-1.8-1.8-1.8H196.9z"/>
			<g>
				<path class="st0" d="M234.5,146.5c-1.9,0-3.5-1.6-3.5-3.5c0-1.9,1.6-3.5,3.5-3.5s3.5,1.6,3.5,3.5
					C238,144.9,236.4,146.5,234.5,146.5z M234.5,141.7c-0.7,0-1.3,0.6-1.3,1.3c0,0.7,0.6,1.3,1.3,1.3s1.3-0.6,1.3-1.3
					C235.8,142.3,235.2,141.7,234.5,141.7z"/>
				<path class="st0" d="M229,144.1h-6.5c-0.6,0-1.1-0.5-1.1-1.1c0-0.6,0.5-1.1,1.1-1.1h6.5c0.6,0,1.1,0.5,1.1,1.1
					C230.1,143.6,229.6,144.1,229,144.1z"/>
				<path class="st0" d="M219,145.7c-0.6,0-1.1-0.5-1.1-1.1v-3.1c0-0.6,0.5-1.1,1.1-1.1s1.1,0.5,1.1,1.1v3.1
					C220.1,145.2,219.6,145.7,219,145.7z"/>
				<path class="st0" d="M214,145.7c-0.6,0-1.1-0.5-1.1-1.1v-3.1c0-0.6,0.5-1.1,1.1-1.1s1.1,0.5,1.1,1.1v3.1
					C215.1,145.2,214.6,145.7,214,145.7z"/>
				<path class="st0" d="M209.4,145.7c-0.6,0-1.1-0.5-1.1-1.1v-3.1c0-0.6,0.5-1.1,1.1-1.1s1.1,0.5,1.1,1.1v3.1
					C210.5,145.2,210,145.7,209.4,145.7z"/>
				<path class="st0" d="M204.7,145.7c-0.6,0-1.1-0.5-1.1-1.1v-3.1c0-0.6,0.5-1.1,1.1-1.1s1.1,0.5,1.1,1.1v3.1
					C205.8,145.2,205.3,145.7,204.7,145.7z"/>
				<path class="st0" d="M199.7,145.7c-0.6,0-1.1-0.5-1.1-1.1v-3.1c0-0.6,0.5-1.1,1.1-1.1c0.6,0,1.1,0.5,1.1,1.1v3.1
					C200.8,145.2,200.3,145.7,199.7,145.7z"/>
			</g>
		</g>
		<g>
			<path class="st0" d="M239.6,138.6h-42.7c-2.2,0-4-1.8-4-4v-5.2c0-2.2,1.8-4,4-4h42.7c2.2,0,4,1.8,4,4v5.2
				C243.6,136.8,241.8,138.6,239.6,138.6z M196.9,127.5c-1,0-1.8,0.8-1.8,1.8v5.2c0,1,0.8,1.8,1.8,1.8h42.7c1,0,1.8-0.8,1.8-1.8
				v-5.2c0-1-0.8-1.8-1.8-1.8H196.9z"/>
			<g>
				<path class="st0" d="M234.5,135.4c-1.9,0-3.5-1.6-3.5-3.5c0-1.9,1.6-3.5,3.5-3.5s3.5,1.6,3.5,3.5
					C238,133.8,236.4,135.4,234.5,135.4z M234.5,130.6c-0.7,0-1.3,0.6-1.3,1.3c0,0.7,0.6,1.3,1.3,1.3s1.3-0.6,1.3-1.3
					C235.8,131.2,235.2,130.6,234.5,130.6z"/>
				<path class="st0" d="M229,133h-6.5c-0.6,0-1.1-0.5-1.1-1.1s0.5-1.1,1.1-1.1h6.5c0.6,0,1.1,0.5,1.1,1.1S229.6,133,229,133z"/>
				<path class="st0" d="M219,134.6c-0.6,0-1.1-0.5-1.1-1.1v-3.1c0-0.6,0.5-1.1,1.1-1.1s1.1,0.5,1.1,1.1v3.1
					C220.1,134.1,219.6,134.6,219,134.6z"/>
				<path class="st0" d="M214,134.6c-0.6,0-1.1-0.5-1.1-1.1v-3.1c0-0.6,0.5-1.1,1.1-1.1s1.1,0.5,1.1,1.1v3.1
					C215.1,134.1,214.6,134.6,214,134.6z"/>
				<path class="st0" d="M209.4,134.6c-0.6,0-1.1-0.5-1.1-1.1v-3.1c0-0.6,0.5-1.1,1.1-1.1s1.1,0.5,1.1,1.1v3.1
					C210.5,134.1,210,134.6,209.4,134.6z"/>
				<path class="st0" d="M204.7,134.6c-0.6,0-1.1-0.5-1.1-1.1v-3.1c0-0.6,0.5-1.1,1.1-1.1s1.1,0.5,1.1,1.1v3.1
					C205.8,134.1,205.3,134.6,204.7,134.6z"/>
				<path class="st0" d="M199.7,134.6c-0.6,0-1.1-0.5-1.1-1.1v-3.1c0-0.6,0.5-1.1,1.1-1.1c0.6,0,1.1,0.5,1.1,1.1v3.1
					C200.8,134.1,200.3,134.6,199.7,134.6z"/>
			</g>
		</g>
		<path class="st0" d="M239.6,127.5h-42.7c-2.2,0-4-1.8-4-4v-9.8c0-0.1,0-0.3,0.1-0.4l4.5-10.8c0.8-2.1,2.8-3.5,5-3.5H234
			c2.2,0,4.2,1.4,5,3.5l4.5,10.8c0.1,0.1,0.1,0.3,0.1,0.4v9.8C243.6,125.7,241.8,127.5,239.6,127.5z M195.1,113.8v9.6
			c0,1,0.8,1.8,1.8,1.8h42.7c1,0,1.8-0.8,1.8-1.8v-9.6l-4.4-10.6c0,0,0,0,0,0c-0.4-1.2-1.6-2.1-2.9-2.1h-31.6
			c-1.3,0-2.5,0.8-2.9,2.1c0,0,0,0,0,0L195.1,113.8z"/>
		<path class="st0" d="M242.5,114.7H194c-0.6,0-1.1-0.5-1.1-1.1c0-0.6,0.5-1.1,1.1-1.1h48.5c0.6,0,1.1,0.5,1.1,1.1
			C243.6,114.2,243.1,114.7,242.5,114.7z"/>
		<g>
			<path class="st0" d="M234.5,123.5c-1.9,0-3.5-1.6-3.5-3.5c0-1.9,1.6-3.5,3.5-3.5c1.9,0,3.5,1.6,3.5,3.5
				C237.9,121.9,236.4,123.5,234.5,123.5z M234.5,118.7c-0.7,0-1.3,0.6-1.3,1.3c0,0.7,0.6,1.3,1.3,1.3c0.7,0,1.3-0.6,1.3-1.3
				C235.7,119.3,235.2,118.7,234.5,118.7z"/>
			<path class="st0" d="M229,121.1h-6.5c-0.6,0-1.1-0.5-1.1-1.1c0-0.6,0.5-1.1,1.1-1.1h6.5c0.6,0,1.1,0.5,1.1,1.1
				C230.1,120.6,229.6,121.1,229,121.1z"/>
			<path class="st0" d="M218.9,122.7c-0.6,0-1.1-0.5-1.1-1.1v-3.1c0-0.6,0.5-1.1,1.1-1.1s1.1,0.5,1.1,1.1v3.1
				C220,122.2,219.5,122.7,218.9,122.7z"/>
			<path class="st0" d="M214,122.7c-0.6,0-1.1-0.5-1.1-1.1v-3.1c0-0.6,0.5-1.1,1.1-1.1c0.6,0,1.1,0.5,1.1,1.1v3.1
				C215.1,122.2,214.6,122.7,214,122.7z"/>
			<path class="st0" d="M209.3,122.7c-0.6,0-1.1-0.5-1.1-1.1v-3.1c0-0.6,0.5-1.1,1.1-1.1c0.6,0,1.1,0.5,1.1,1.1v3.1
				C210.4,122.2,209.9,122.7,209.3,122.7z"/>
			<path class="st0" d="M204.6,122.7c-0.6,0-1.1-0.5-1.1-1.1v-3.1c0-0.6,0.5-1.1,1.1-1.1c0.6,0,1.1,0.5,1.1,1.1v3.1
				C205.7,122.2,205.2,122.7,204.6,122.7z"/>
			<path class="st0" d="M199.6,122.7c-0.6,0-1.1-0.5-1.1-1.1v-3.1c0-0.6,0.5-1.1,1.1-1.1s1.1,0.5,1.1,1.1v3.1
				C200.7,122.2,200.2,122.7,199.6,122.7z"/>
		</g>
		<path class="st0" d="M226.5,105.3h-24.9c-0.6,0-1.1-0.5-1.1-1.1c0-0.6,0.5-1.1,1.1-1.1h24.9c0.6,0,1.1,0.5,1.1,1.1
			C227.6,104.8,227.1,105.3,226.5,105.3z"/>
		<path class="st0" d="M234.5,105.3h-3.6c-0.6,0-1.1-0.5-1.1-1.1c0-0.6,0.5-1.1,1.1-1.1h3.6c0.6,0,1.1,0.5,1.1,1.1
			C235.6,104.8,235.1,105.3,234.5,105.3z"/>
	</g>
	<g>
		<g>
			<path class="st0" d="M148.2,168.4h-42.7c-2.2,0-4-1.8-4-4v-5.2c0-2.2,1.8-4,4-4h42.7c2.2,0,4,1.8,4,4v5.2
				C152.2,166.6,150.4,168.4,148.2,168.4z M105.6,157.3c-1,0-1.8,0.8-1.8,1.8v5.2c0,1,0.8,1.8,1.8,1.8h42.7c1,0,1.8-0.8,1.8-1.8
				v-5.2c0-1-0.8-1.8-1.8-1.8H105.6z"/>
			<g>
				<path class="st0" d="M143.2,165.2c-1.9,0-3.5-1.6-3.5-3.5s1.6-3.5,3.5-3.5c1.9,0,3.5,1.6,3.5,3.5S145.1,165.2,143.2,165.2z
					 M143.2,160.5c-0.7,0-1.3,0.6-1.3,1.3c0,0.7,0.6,1.3,1.3,1.3c0.7,0,1.3-0.6,1.3-1.3C144.5,161,143.9,160.5,143.2,160.5z"/>
				<path class="st0" d="M137.7,162.8h-6.5c-0.6,0-1.1-0.5-1.1-1.1s0.5-1.1,1.1-1.1h6.5c0.6,0,1.1,0.5,1.1,1.1
					S138.3,162.8,137.7,162.8z"/>
				<path class="st0" d="M127.6,164.4c-0.6,0-1.1-0.5-1.1-1.1v-3.1c0-0.6,0.5-1.1,1.1-1.1s1.1,0.5,1.1,1.1v3.1
					C128.7,163.9,128.3,164.4,127.6,164.4z"/>
				<path class="st0" d="M122.7,164.4c-0.6,0-1.1-0.5-1.1-1.1v-3.1c0-0.6,0.5-1.1,1.1-1.1c0.6,0,1.1,0.5,1.1,1.1v3.1
					C123.8,163.9,123.3,164.4,122.7,164.4z"/>
				<path class="st0" d="M118,164.4c-0.6,0-1.1-0.5-1.1-1.1v-3.1c0-0.6,0.5-1.1,1.1-1.1c0.6,0,1.1,0.5,1.1,1.1v3.1
					C119.1,163.9,118.6,164.4,118,164.4z"/>
				<path class="st0" d="M113.3,164.4c-0.6,0-1.1-0.5-1.1-1.1v-3.1c0-0.6,0.5-1.1,1.1-1.1c0.6,0,1.1,0.5,1.1,1.1v3.1
					C114.4,163.9,113.9,164.4,113.3,164.4z"/>
				<path class="st0" d="M108.4,164.4c-0.6,0-1.1-0.5-1.1-1.1v-3.1c0-0.6,0.5-1.1,1.1-1.1c0.6,0,1.1,0.5,1.1,1.1v3.1
					C109.5,163.9,109,164.4,108.4,164.4z"/>
			</g>
		</g>
		<g>
			<path class="st0" d="M148.2,157.3h-42.7c-2.2,0-4-1.8-4-4V148c0-2.2,1.8-4,4-4h42.7c2.2,0,4,1.8,4,4v5.2
				C152.2,155.5,150.4,157.3,148.2,157.3z M105.6,146.2c-1,0-1.8,0.8-1.8,1.8v5.2c0,1,0.8,1.8,1.8,1.8h42.7c1,0,1.8-0.8,1.8-1.8V148
				c0-1-0.8-1.8-1.8-1.8H105.6z"/>
			<g>
				<path class="st0" d="M143.2,154.1c-1.9,0-3.5-1.6-3.5-3.5c0-1.9,1.6-3.5,3.5-3.5c1.9,0,3.5,1.6,3.5,3.5
					C146.7,152.6,145.1,154.1,143.2,154.1z M143.2,149.4c-0.7,0-1.3,0.6-1.3,1.3c0,0.7,0.6,1.3,1.3,1.3c0.7,0,1.3-0.6,1.3-1.3
					C144.5,149.9,143.9,149.4,143.2,149.4z"/>
				<path class="st0" d="M137.7,151.8h-6.5c-0.6,0-1.1-0.5-1.1-1.1c0-0.6,0.5-1.1,1.1-1.1h6.5c0.6,0,1.1,0.5,1.1,1.1
					C138.8,151.3,138.3,151.8,137.7,151.8z"/>
				<path class="st0" d="M127.6,153.3c-0.6,0-1.1-0.5-1.1-1.1v-3.1c0-0.6,0.5-1.1,1.1-1.1s1.1,0.5,1.1,1.1v3.1
					C128.7,152.8,128.3,153.3,127.6,153.3z"/>
				<path class="st0" d="M122.7,153.3c-0.6,0-1.1-0.5-1.1-1.1v-3.1c0-0.6,0.5-1.1,1.1-1.1c0.6,0,1.1,0.5,1.1,1.1v3.1
					C123.8,152.8,123.3,153.3,122.7,153.3z"/>
				<path class="st0" d="M118,153.3c-0.6,0-1.1-0.5-1.1-1.1v-3.1c0-0.6,0.5-1.1,1.1-1.1c0.6,0,1.1,0.5,1.1,1.1v3.1
					C119.1,152.8,118.6,153.3,118,153.3z"/>
				<path class="st0" d="M113.3,153.3c-0.6,0-1.1-0.5-1.1-1.1v-3.1c0-0.6,0.5-1.1,1.1-1.1c0.6,0,1.1,0.5,1.1,1.1v3.1
					C114.4,152.8,113.9,153.3,113.3,153.3z"/>
				<path class="st0" d="M108.4,153.3c-0.6,0-1.1-0.5-1.1-1.1v-3.1c0-0.6,0.5-1.1,1.1-1.1c0.6,0,1.1,0.5,1.1,1.1v3.1
					C109.5,152.8,109,153.3,108.4,153.3z"/>
			</g>
		</g>
		<path class="st0" d="M148.2,146.2h-42.7c-2.2,0-4-1.8-4-4v-9.8c0-0.1,0-0.3,0.1-0.4l4.5-10.8c0.8-2.1,2.8-3.5,5-3.5h31.6
			c2.2,0,4.2,1.4,5,3.5l4.5,10.8c0.1,0.1,0.1,0.3,0.1,0.4v9.8C152.2,144.4,150.4,146.2,148.2,146.2z M103.7,132.6v9.6
			c0,1,0.8,1.8,1.8,1.8h42.7c1,0,1.8-0.8,1.8-1.8v-9.6l-4.4-10.6c0,0,0,0,0,0c-0.4-1.2-1.6-2.1-2.9-2.1h-31.6
			c-1.3,0-2.5,0.8-2.9,2.1c0,0,0,0,0,0L103.7,132.6z"/>
		<path class="st0" d="M151.1,133.5h-48.5c-0.6,0-1.1-0.5-1.1-1.1c0-0.6,0.5-1.1,1.1-1.1h48.5c0.6,0,1.1,0.5,1.1,1.1
			C152.2,133,151.7,133.5,151.1,133.5z"/>
		<g>
			<path class="st0" d="M143.1,142.2c-1.9,0-3.5-1.6-3.5-3.5c0-1.9,1.6-3.5,3.5-3.5c1.9,0,3.5,1.6,3.5,3.5
				C146.6,140.6,145,142.2,143.1,142.2z M143.1,137.5c-0.7,0-1.3,0.6-1.3,1.3c0,0.7,0.6,1.3,1.3,1.3c0.7,0,1.3-0.6,1.3-1.3
				C144.4,138,143.8,137.5,143.1,137.5z"/>
			<path class="st0" d="M137.6,139.8h-6.5c-0.6,0-1.1-0.5-1.1-1.1s0.5-1.1,1.1-1.1h6.5c0.6,0,1.1,0.5,1.1,1.1
				S138.2,139.8,137.6,139.8z"/>
			<path class="st0" d="M127.6,141.4c-0.6,0-1.1-0.5-1.1-1.1v-3.1c0-0.6,0.5-1.1,1.1-1.1c0.6,0,1.1,0.5,1.1,1.1v3.1
				C128.7,140.9,128.2,141.4,127.6,141.4z"/>
			<path class="st0" d="M122.6,141.4c-0.6,0-1.1-0.5-1.1-1.1v-3.1c0-0.6,0.5-1.1,1.1-1.1c0.6,0,1.1,0.5,1.1,1.1v3.1
				C123.7,140.9,123.2,141.4,122.6,141.4z"/>
			<path class="st0" d="M117.9,141.4c-0.6,0-1.1-0.5-1.1-1.1v-3.1c0-0.6,0.5-1.1,1.1-1.1c0.6,0,1.1,0.5,1.1,1.1v3.1
				C119,140.9,118.5,141.4,117.9,141.4z"/>
			<path class="st0" d="M113.2,141.4c-0.6,0-1.1-0.5-1.1-1.1v-3.1c0-0.6,0.5-1.1,1.1-1.1c0.6,0,1.1,0.5,1.1,1.1v3.1
				C114.3,140.9,113.9,141.4,113.2,141.4z"/>
			<path class="st0" d="M108.3,141.4c-0.6,0-1.1-0.5-1.1-1.1v-3.1c0-0.6,0.5-1.1,1.1-1.1c0.6,0,1.1,0.5,1.1,1.1v3.1
				C109.4,140.9,108.9,141.4,108.3,141.4z"/>
		</g>
		<path class="st0" d="M135.2,124h-24.9c-0.6,0-1.1-0.5-1.1-1.1c0-0.6,0.5-1.1,1.1-1.1h24.9c0.6,0,1.1,0.5,1.1,1.1
			C136.3,123.5,135.8,124,135.2,124z"/>
		<path class="st0" d="M143.1,124h-3.6c-0.6,0-1.1-0.5-1.1-1.1c0-0.6,0.5-1.1,1.1-1.1h3.6c0.6,0,1.1,0.5,1.1,1.1
			C144.2,123.5,143.7,124,143.1,124z"/>
	</g>
	<g>
		<g>
			<path class="st0" d="M61.5,90.1H18.9c-2.2,0-4-1.8-4-4v-5.2c0-2.2,1.8-4,4-4h42.7c2.2,0,4,1.8,4,4V86
				C65.6,88.3,63.8,90.1,61.5,90.1z M18.9,79c-1,0-1.8,0.8-1.8,1.8V86c0,1,0.8,1.8,1.8,1.8h42.7c1,0,1.8-0.8,1.8-1.8v-5.2
				c0-1-0.8-1.8-1.8-1.8H18.9z"/>
			<g>
				<path class="st0" d="M56.5,86.9c-1.9,0-3.5-1.6-3.5-3.5c0-1.9,1.6-3.5,3.5-3.5s3.5,1.6,3.5,3.5C60,85.3,58.4,86.9,56.5,86.9z
					 M56.5,82.1c-0.7,0-1.3,0.6-1.3,1.3c0,0.7,0.6,1.3,1.3,1.3c0.7,0,1.3-0.6,1.3-1.3C57.8,82.7,57.2,82.1,56.5,82.1z"/>
				<path class="st0" d="M51,84.5h-6.5c-0.6,0-1.1-0.5-1.1-1.1c0-0.6,0.5-1.1,1.1-1.1H51c0.6,0,1.1,0.5,1.1,1.1
					C52.1,84,51.6,84.5,51,84.5z"/>
				<path class="st0" d="M41,86.1c-0.6,0-1.1-0.5-1.1-1.1v-3.1c0-0.6,0.5-1.1,1.1-1.1s1.1,0.5,1.1,1.1V85
					C42.1,85.6,41.6,86.1,41,86.1z"/>
				<path class="st0" d="M36,86.1c-0.6,0-1.1-0.5-1.1-1.1v-3.1c0-0.6,0.5-1.1,1.1-1.1s1.1,0.5,1.1,1.1V85
					C37.1,85.6,36.6,86.1,36,86.1z"/>
				<path class="st0" d="M31.3,86.1c-0.6,0-1.1-0.5-1.1-1.1v-3.1c0-0.6,0.5-1.1,1.1-1.1s1.1,0.5,1.1,1.1V85
					C32.4,85.6,31.9,86.1,31.3,86.1z"/>
				<path class="st0" d="M26.6,86.1c-0.6,0-1.1-0.5-1.1-1.1v-3.1c0-0.6,0.5-1.1,1.1-1.1s1.1,0.5,1.1,1.1V85
					C27.7,85.6,27.2,86.1,26.6,86.1z"/>
				<path class="st0" d="M21.7,86.1c-0.6,0-1.1-0.5-1.1-1.1v-3.1c0-0.6,0.5-1.1,1.1-1.1s1.1,0.5,1.1,1.1V85
					C22.8,85.6,22.3,86.1,21.7,86.1z"/>
			</g>
		</g>
		<g>
			<path class="st0" d="M61.5,79H18.9c-2.2,0-4-1.8-4-4v-5.2c0-2.2,1.8-4,4-4h42.7c2.2,0,4,1.8,4,4v5.2C65.6,77.2,63.8,79,61.5,79z
				 M18.9,67.9c-1,0-1.8,0.8-1.8,1.8v5.2c0,1,0.8,1.8,1.8,1.8h42.7c1,0,1.8-0.8,1.8-1.8v-5.2c0-1-0.8-1.8-1.8-1.8H18.9z"/>
			<g>
				<path class="st0" d="M56.5,75.8c-1.9,0-3.5-1.6-3.5-3.5c0-1.9,1.6-3.5,3.5-3.5s3.5,1.6,3.5,3.5C60,74.2,58.4,75.8,56.5,75.8z
					 M56.5,71.1c-0.7,0-1.3,0.6-1.3,1.3c0,0.7,0.6,1.3,1.3,1.3c0.7,0,1.3-0.6,1.3-1.3C57.8,71.6,57.2,71.1,56.5,71.1z"/>
				<path class="st0" d="M51,73.4h-6.5c-0.6,0-1.1-0.5-1.1-1.1c0-0.6,0.5-1.1,1.1-1.1H51c0.6,0,1.1,0.5,1.1,1.1
					C52.1,72.9,51.6,73.4,51,73.4z"/>
				<path class="st0" d="M41,75c-0.6,0-1.1-0.5-1.1-1.1v-3.1c0-0.6,0.5-1.1,1.1-1.1s1.1,0.5,1.1,1.1v3.1C42.1,74.5,41.6,75,41,75z"
					/>
				<path class="st0" d="M36,75c-0.6,0-1.1-0.5-1.1-1.1v-3.1c0-0.6,0.5-1.1,1.1-1.1s1.1,0.5,1.1,1.1v3.1C37.1,74.5,36.6,75,36,75z"
					/>
				<path class="st0" d="M31.3,75c-0.6,0-1.1-0.5-1.1-1.1v-3.1c0-0.6,0.5-1.1,1.1-1.1s1.1,0.5,1.1,1.1v3.1
					C32.4,74.5,31.9,75,31.3,75z"/>
				<path class="st0" d="M26.6,75c-0.6,0-1.1-0.5-1.1-1.1v-3.1c0-0.6,0.5-1.1,1.1-1.1s1.1,0.5,1.1,1.1v3.1
					C27.7,74.5,27.2,75,26.6,75z"/>
				<path class="st0" d="M21.7,75c-0.6,0-1.1-0.5-1.1-1.1v-3.1c0-0.6,0.5-1.1,1.1-1.1s1.1,0.5,1.1,1.1v3.1
					C22.8,74.5,22.3,75,21.7,75z"/>
			</g>
		</g>
		<path class="st0" d="M61.5,67.9H18.9c-2.2,0-4-1.8-4-4V54c0-0.1,0-0.3,0.1-0.4l4.5-10.8c0.8-2.1,2.8-3.5,5-3.5H56
			c2.2,0,4.2,1.4,5,3.5l4.5,10.8c0.1,0.1,0.1,0.3,0.1,0.4v9.8C65.6,66.1,63.8,67.9,61.5,67.9z M17.1,54.2v9.6c0,1,0.8,1.8,1.8,1.8
			h42.7c1,0,1.8-0.8,1.8-1.8v-9.6l-4.4-10.6c0,0,0,0,0,0c-0.4-1.2-1.6-2.1-2.9-2.1H24.4c-1.3,0-2.5,0.8-2.9,2.1c0,0,0,0,0,0
			L17.1,54.2z"/>
		<path class="st0" d="M64.5,55.1H15.9c-0.6,0-1.1-0.5-1.1-1.1s0.5-1.1,1.1-1.1h48.5c0.6,0,1.1,0.5,1.1,1.1S65.1,55.1,64.5,55.1z"/>
		<g>
			<path class="st0" d="M56.4,63.9c-1.9,0-3.5-1.6-3.5-3.5c0-1.9,1.6-3.5,3.5-3.5s3.5,1.6,3.5,3.5C59.9,62.3,58.3,63.9,56.4,63.9z
				 M56.4,59.1c-0.7,0-1.3,0.6-1.3,1.3c0,0.7,0.6,1.3,1.3,1.3c0.7,0,1.3-0.6,1.3-1.3C57.7,59.7,57.1,59.1,56.4,59.1z"/>
			<path class="st0" d="M50.9,61.5h-6.5c-0.6,0-1.1-0.5-1.1-1.1s0.5-1.1,1.1-1.1h6.5c0.6,0,1.1,0.5,1.1,1.1S51.5,61.5,50.9,61.5z"/>
			<path class="st0" d="M40.9,63.1c-0.6,0-1.1-0.5-1.1-1.1v-3.1c0-0.6,0.5-1.1,1.1-1.1s1.1,0.5,1.1,1.1V62
				C42,62.6,41.5,63.1,40.9,63.1z"/>
			<path class="st0" d="M35.9,63.1c-0.6,0-1.1-0.5-1.1-1.1v-3.1c0-0.6,0.5-1.1,1.1-1.1s1.1,0.5,1.1,1.1V62
				C37,62.6,36.5,63.1,35.9,63.1z"/>
			<path class="st0" d="M31.2,63.1c-0.6,0-1.1-0.5-1.1-1.1v-3.1c0-0.6,0.5-1.1,1.1-1.1s1.1,0.5,1.1,1.1V62
				C32.4,62.6,31.9,63.1,31.2,63.1z"/>
			<path class="st0" d="M26.6,63.1c-0.6,0-1.1-0.5-1.1-1.1v-3.1c0-0.6,0.5-1.1,1.1-1.1s1.1,0.5,1.1,1.1V62
				C27.7,62.6,27.2,63.1,26.6,63.1z"/>
			<path class="st0" d="M21.6,63.1c-0.6,0-1.1-0.5-1.1-1.1v-3.1c0-0.6,0.5-1.1,1.1-1.1s1.1,0.5,1.1,1.1V62
				C22.7,62.6,22.2,63.1,21.6,63.1z"/>
		</g>
		<path class="st0" d="M48.5,45.7H23.6c-0.6,0-1.1-0.5-1.1-1.1s0.5-1.1,1.1-1.1h24.9c0.6,0,1.1,0.5,1.1,1.1S49.1,45.7,48.5,45.7z"/>
		<path class="st0" d="M56.4,45.7h-3.6c-0.6,0-1.1-0.5-1.1-1.1s0.5-1.1,1.1-1.1h3.6c0.6,0,1.1,0.5,1.1,1.1S57,45.7,56.4,45.7z"/>
	</g>
	<g>
		<g>
			<path class="st0" d="M84.7,227.5H42c-2.2,0-4-1.8-4-4v-5.2c0-2.2,1.8-4,4-4h42.7c2.2,0,4,1.8,4,4v5.2
				C88.7,225.7,86.9,227.5,84.7,227.5z M42,216.4c-1,0-1.8,0.8-1.8,1.8v5.2c0,1,0.8,1.8,1.8,1.8h42.7c1,0,1.8-0.8,1.8-1.8v-5.2
				c0-1-0.8-1.8-1.8-1.8H42z"/>
			<g>
				<path class="st0" d="M79.6,224.4c-1.9,0-3.5-1.6-3.5-3.5c0-1.9,1.6-3.5,3.5-3.5c1.9,0,3.5,1.6,3.5,3.5
					C83.1,222.8,81.6,224.4,79.6,224.4z M79.6,219.6c-0.7,0-1.3,0.6-1.3,1.3c0,0.7,0.6,1.3,1.3,1.3c0.7,0,1.3-0.6,1.3-1.3
					C80.9,220.2,80.4,219.6,79.6,219.6z"/>
				<path class="st0" d="M74.2,222h-6.5c-0.6,0-1.1-0.5-1.1-1.1c0-0.6,0.5-1.1,1.1-1.1h6.5c0.6,0,1.1,0.5,1.1,1.1
					C75.3,221.5,74.8,222,74.2,222z"/>
				<path class="st0" d="M64.1,223.6c-0.6,0-1.1-0.5-1.1-1.1v-3.1c0-0.6,0.5-1.1,1.1-1.1c0.6,0,1.1,0.5,1.1,1.1v3.1
					C65.2,223.1,64.7,223.6,64.1,223.6z"/>
				<path class="st0" d="M59.2,223.6c-0.6,0-1.1-0.5-1.1-1.1v-3.1c0-0.6,0.5-1.1,1.1-1.1s1.1,0.5,1.1,1.1v3.1
					C60.3,223.1,59.8,223.6,59.2,223.6z"/>
				<path class="st0" d="M54.5,223.6c-0.6,0-1.1-0.5-1.1-1.1v-3.1c0-0.6,0.5-1.1,1.1-1.1s1.1,0.5,1.1,1.1v3.1
					C55.6,223.1,55.1,223.6,54.5,223.6z"/>
				<path class="st0" d="M49.8,223.6c-0.6,0-1.1-0.5-1.1-1.1v-3.1c0-0.6,0.5-1.1,1.1-1.1s1.1,0.5,1.1,1.1v3.1
					C50.9,223.1,50.4,223.6,49.8,223.6z"/>
				<path class="st0" d="M44.8,223.6c-0.6,0-1.1-0.5-1.1-1.1v-3.1c0-0.6,0.5-1.1,1.1-1.1s1.1,0.5,1.1,1.1v3.1
					C45.9,223.1,45.4,223.6,44.8,223.6z"/>
			</g>
		</g>
		<g>
			<path class="st0" d="M84.7,216.4H42c-2.2,0-4-1.8-4-4v-5.2c0-2.2,1.8-4,4-4h42.7c2.2,0,4,1.8,4,4v5.2
				C88.7,214.6,86.9,216.4,84.7,216.4z M42,205.3c-1,0-1.8,0.8-1.8,1.8v5.2c0,1,0.8,1.8,1.8,1.8h42.7c1,0,1.8-0.8,1.8-1.8v-5.2
				c0-1-0.8-1.8-1.8-1.8H42z"/>
			<g>
				<path class="st0" d="M79.6,213.3c-1.9,0-3.5-1.6-3.5-3.5c0-1.9,1.6-3.5,3.5-3.5c1.9,0,3.5,1.6,3.5,3.5
					C83.1,211.7,81.6,213.3,79.6,213.3z M79.6,208.5c-0.7,0-1.3,0.6-1.3,1.3c0,0.7,0.6,1.3,1.3,1.3c0.7,0,1.3-0.6,1.3-1.3
					C80.9,209.1,80.4,208.5,79.6,208.5z"/>
				<path class="st0" d="M74.2,210.9h-6.5c-0.6,0-1.1-0.5-1.1-1.1s0.5-1.1,1.1-1.1h6.5c0.6,0,1.1,0.5,1.1,1.1S74.8,210.9,74.2,210.9
					z"/>
				<path class="st0" d="M64.1,212.5c-0.6,0-1.1-0.5-1.1-1.1v-3.1c0-0.6,0.5-1.1,1.1-1.1c0.6,0,1.1,0.5,1.1,1.1v3.1
					C65.2,212,64.7,212.5,64.1,212.5z"/>
				<path class="st0" d="M59.2,212.5c-0.6,0-1.1-0.5-1.1-1.1v-3.1c0-0.6,0.5-1.1,1.1-1.1s1.1,0.5,1.1,1.1v3.1
					C60.3,212,59.8,212.5,59.2,212.5z"/>
				<path class="st0" d="M54.5,212.5c-0.6,0-1.1-0.5-1.1-1.1v-3.1c0-0.6,0.5-1.1,1.1-1.1s1.1,0.5,1.1,1.1v3.1
					C55.6,212,55.1,212.5,54.5,212.5z"/>
				<path class="st0" d="M49.8,212.5c-0.6,0-1.1-0.5-1.1-1.1v-3.1c0-0.6,0.5-1.1,1.1-1.1s1.1,0.5,1.1,1.1v3.1
					C50.9,212,50.4,212.5,49.8,212.5z"/>
				<path class="st0" d="M44.8,212.5c-0.6,0-1.1-0.5-1.1-1.1v-3.1c0-0.6,0.5-1.1,1.1-1.1s1.1,0.5,1.1,1.1v3.1
					C45.9,212,45.4,212.5,44.8,212.5z"/>
			</g>
		</g>
		<path class="st0" d="M84.7,205.3H42c-2.2,0-4-1.8-4-4v-9.8c0-0.1,0-0.3,0.1-0.4l4.5-10.8c0.8-2.1,2.8-3.5,5-3.5h31.6
			c2.2,0,4.2,1.4,5,3.5l4.5,10.8c0.1,0.1,0.1,0.3,0.1,0.4v9.8C88.7,203.5,86.9,205.3,84.7,205.3z M40.2,191.7v9.6
			c0,1,0.8,1.8,1.8,1.8h42.7c1,0,1.8-0.8,1.8-1.8v-9.6l-4.4-10.6c0,0,0,0,0,0c-0.4-1.2-1.6-2.1-2.9-2.1H47.6c-1.3,0-2.5,0.8-2.9,2.1
			c0,0,0,0,0,0L40.2,191.7z"/>
		<path class="st0" d="M87.6,192.6H39.1c-0.6,0-1.1-0.5-1.1-1.1c0-0.6,0.5-1.1,1.1-1.1h48.5c0.6,0,1.1,0.5,1.1,1.1
			C88.7,192.1,88.2,192.6,87.6,192.6z"/>
		<g>
			<path class="st0" d="M79.6,201.3c-1.9,0-3.5-1.6-3.5-3.5c0-1.9,1.6-3.5,3.5-3.5s3.5,1.6,3.5,3.5
				C83.1,199.8,81.5,201.3,79.6,201.3z M79.6,196.6c-0.7,0-1.3,0.6-1.3,1.3c0,0.7,0.6,1.3,1.3,1.3s1.3-0.6,1.3-1.3
				C80.9,197.2,80.3,196.6,79.6,196.6z"/>
			<path class="st0" d="M74.1,199h-6.5c-0.6,0-1.1-0.5-1.1-1.1s0.5-1.1,1.1-1.1h6.5c0.6,0,1.1,0.5,1.1,1.1S74.7,199,74.1,199z"/>
			<path class="st0" d="M64,200.5c-0.6,0-1.1-0.5-1.1-1.1v-3.1c0-0.6,0.5-1.1,1.1-1.1c0.6,0,1.1,0.5,1.1,1.1v3.1
				C65.1,200,64.7,200.5,64,200.5z"/>
			<path class="st0" d="M59.1,200.5c-0.6,0-1.1-0.5-1.1-1.1v-3.1c0-0.6,0.5-1.1,1.1-1.1s1.1,0.5,1.1,1.1v3.1
				C60.2,200,59.7,200.5,59.1,200.5z"/>
			<path class="st0" d="M54.4,200.5c-0.6,0-1.1-0.5-1.1-1.1v-3.1c0-0.6,0.5-1.1,1.1-1.1s1.1,0.5,1.1,1.1v3.1
				C55.5,200,55,200.5,54.4,200.5z"/>
			<path class="st0" d="M49.7,200.5c-0.6,0-1.1-0.5-1.1-1.1v-3.1c0-0.6,0.5-1.1,1.1-1.1s1.1,0.5,1.1,1.1v3.1
				C50.8,200,50.3,200.5,49.7,200.5z"/>
			<path class="st0" d="M44.8,200.5c-0.6,0-1.1-0.5-1.1-1.1v-3.1c0-0.6,0.5-1.1,1.1-1.1s1.1,0.5,1.1,1.1v3.1
				C45.9,200,45.4,200.5,44.8,200.5z"/>
		</g>
		<path class="st0" d="M71.6,183.1H46.8c-0.6,0-1.1-0.5-1.1-1.1s0.5-1.1,1.1-1.1h24.9c0.6,0,1.1,0.5,1.1,1.1S72.3,183.1,71.6,183.1z
			"/>
		<path class="st0" d="M79.6,183.1h-3.6c-0.6,0-1.1-0.5-1.1-1.1s0.5-1.1,1.1-1.1h3.6c0.6,0,1.1,0.5,1.1,1.1S80.2,183.1,79.6,183.1z"
			/>
	</g>
	<g>
		<g>
			<path class="st0" d="M200.1,261.9h-42.7c-2.2,0-4-1.8-4-4v-5.2c0-2.2,1.8-4,4-4h42.7c2.2,0,4,1.8,4,4v5.2
				C204.1,260.1,202.3,261.9,200.1,261.9z M157.4,250.8c-1,0-1.8,0.8-1.8,1.8v5.2c0,1,0.8,1.8,1.8,1.8h42.7c1,0,1.8-0.8,1.8-1.8
				v-5.2c0-1-0.8-1.8-1.8-1.8H157.4z"/>
			<g>
				<path class="st0" d="M195.1,258.8c-1.9,0-3.5-1.6-3.5-3.5c0-1.9,1.6-3.5,3.5-3.5s3.5,1.6,3.5,3.5
					C198.5,257.2,197,258.8,195.1,258.8z M195.1,254c-0.7,0-1.3,0.6-1.3,1.3s0.6,1.3,1.3,1.3s1.3-0.6,1.3-1.3S195.8,254,195.1,254z"
					/>
				<path class="st0" d="M189.6,256.4h-6.5c-0.6,0-1.1-0.5-1.1-1.1s0.5-1.1,1.1-1.1h6.5c0.6,0,1.1,0.5,1.1,1.1
					S190.2,256.4,189.6,256.4z"/>
				<path class="st0" d="M179.5,258c-0.6,0-1.1-0.5-1.1-1.1v-3.1c0-0.6,0.5-1.1,1.1-1.1s1.1,0.5,1.1,1.1v3.1
					C180.6,257.5,180.1,258,179.5,258z"/>
				<path class="st0" d="M174.6,258c-0.6,0-1.1-0.5-1.1-1.1v-3.1c0-0.6,0.5-1.1,1.1-1.1c0.6,0,1.1,0.5,1.1,1.1v3.1
					C175.7,257.5,175.2,258,174.6,258z"/>
				<path class="st0" d="M169.9,258c-0.6,0-1.1-0.5-1.1-1.1v-3.1c0-0.6,0.5-1.1,1.1-1.1c0.6,0,1.1,0.5,1.1,1.1v3.1
					C171,257.5,170.5,258,169.9,258z"/>
				<path class="st0" d="M165.2,258c-0.6,0-1.1-0.5-1.1-1.1v-3.1c0-0.6,0.5-1.1,1.1-1.1c0.6,0,1.1,0.5,1.1,1.1v3.1
					C166.3,257.5,165.8,258,165.2,258z"/>
				<path class="st0" d="M160.2,258c-0.6,0-1.1-0.5-1.1-1.1v-3.1c0-0.6,0.5-1.1,1.1-1.1c0.6,0,1.1,0.5,1.1,1.1v3.1
					C161.3,257.5,160.8,258,160.2,258z"/>
			</g>
		</g>
		<g>
			<path class="st0" d="M200.1,250.8h-42.7c-2.2,0-4-1.8-4-4v-5.2c0-2.2,1.8-4,4-4h42.7c2.2,0,4,1.8,4,4v5.2
				C204.1,249,202.3,250.8,200.1,250.8z M157.4,239.7c-1,0-1.8,0.8-1.8,1.8v5.2c0,1,0.8,1.8,1.8,1.8h42.7c1,0,1.8-0.8,1.8-1.8v-5.2
				c0-1-0.8-1.8-1.8-1.8H157.4z"/>
			<g>
				<path class="st0" d="M195.1,247.7c-1.9,0-3.5-1.6-3.5-3.5c0-1.9,1.6-3.5,3.5-3.5s3.5,1.6,3.5,3.5
					C198.5,246.1,197,247.7,195.1,247.7z M195.1,242.9c-0.7,0-1.3,0.6-1.3,1.3c0,0.7,0.6,1.3,1.3,1.3s1.3-0.6,1.3-1.3
					C196.3,243.5,195.8,242.9,195.1,242.9z"/>
				<path class="st0" d="M189.6,245.3h-6.5c-0.6,0-1.1-0.5-1.1-1.1c0-0.6,0.5-1.1,1.1-1.1h6.5c0.6,0,1.1,0.5,1.1,1.1
					C190.7,244.8,190.2,245.3,189.6,245.3z"/>
				<path class="st0" d="M179.5,246.9c-0.6,0-1.1-0.5-1.1-1.1v-3.1c0-0.6,0.5-1.1,1.1-1.1s1.1,0.5,1.1,1.1v3.1
					C180.6,246.4,180.1,246.9,179.5,246.9z"/>
				<path class="st0" d="M174.6,246.9c-0.6,0-1.1-0.5-1.1-1.1v-3.1c0-0.6,0.5-1.1,1.1-1.1c0.6,0,1.1,0.5,1.1,1.1v3.1
					C175.7,246.4,175.2,246.9,174.6,246.9z"/>
				<path class="st0" d="M169.9,246.9c-0.6,0-1.1-0.5-1.1-1.1v-3.1c0-0.6,0.5-1.1,1.1-1.1c0.6,0,1.1,0.5,1.1,1.1v3.1
					C171,246.4,170.5,246.9,169.9,246.9z"/>
				<path class="st0" d="M165.2,246.9c-0.6,0-1.1-0.5-1.1-1.1v-3.1c0-0.6,0.5-1.1,1.1-1.1c0.6,0,1.1,0.5,1.1,1.1v3.1
					C166.3,246.4,165.8,246.9,165.2,246.9z"/>
				<path class="st0" d="M160.2,246.9c-0.6,0-1.1-0.5-1.1-1.1v-3.1c0-0.6,0.5-1.1,1.1-1.1c0.6,0,1.1,0.5,1.1,1.1v3.1
					C161.3,246.4,160.8,246.9,160.2,246.9z"/>
			</g>
		</g>
		<path class="st0" d="M200.1,239.7h-42.7c-2.2,0-4-1.8-4-4v-9.8c0-0.1,0-0.3,0.1-0.4l4.5-10.8c0.8-2.1,2.8-3.5,5-3.5h31.6
			c2.2,0,4.2,1.4,5,3.5l4.5,10.8c0.1,0.1,0.1,0.3,0.1,0.4v9.8C204.1,237.9,202.3,239.7,200.1,239.7z M155.6,226.1v9.6
			c0,1,0.8,1.8,1.8,1.8h42.7c1,0,1.8-0.8,1.8-1.8v-9.6l-4.4-10.6c0,0,0,0,0,0c-0.4-1.2-1.6-2.1-2.9-2.1H163c-1.3,0-2.5,0.8-2.9,2.1
			c0,0,0,0,0,0L155.6,226.1z"/>
		<path class="st0" d="M203,227h-48.5c-0.6,0-1.1-0.5-1.1-1.1s0.5-1.1,1.1-1.1H203c0.6,0,1.1,0.5,1.1,1.1S203.6,227,203,227z"/>
		<g>
			<path class="st0" d="M195,235.8c-1.9,0-3.5-1.6-3.5-3.5c0-1.9,1.6-3.5,3.5-3.5c1.9,0,3.5,1.6,3.5,3.5
				C198.5,234.2,196.9,235.8,195,235.8z M195,231c-0.7,0-1.3,0.6-1.3,1.3c0,0.7,0.6,1.3,1.3,1.3c0.7,0,1.3-0.6,1.3-1.3
				C196.3,231.6,195.7,231,195,231z"/>
			<path class="st0" d="M189.5,233.4H183c-0.6,0-1.1-0.5-1.1-1.1c0-0.6,0.5-1.1,1.1-1.1h6.5c0.6,0,1.1,0.5,1.1,1.1
				C190.6,232.9,190.1,233.4,189.5,233.4z"/>
			<path class="st0" d="M179.4,234.9c-0.6,0-1.1-0.5-1.1-1.1v-3.1c0-0.6,0.5-1.1,1.1-1.1c0.6,0,1.1,0.5,1.1,1.1v3.1
				C180.6,234.5,180.1,234.9,179.4,234.9z"/>
			<path class="st0" d="M174.5,234.9c-0.6,0-1.1-0.5-1.1-1.1v-3.1c0-0.6,0.5-1.1,1.1-1.1s1.1,0.5,1.1,1.1v3.1
				C175.6,234.5,175.1,234.9,174.5,234.9z"/>
			<path class="st0" d="M169.8,234.9c-0.6,0-1.1-0.5-1.1-1.1v-3.1c0-0.6,0.5-1.1,1.1-1.1c0.6,0,1.1,0.5,1.1,1.1v3.1
				C170.9,234.5,170.4,234.9,169.8,234.9z"/>
			<path class="st0" d="M165.1,234.9c-0.6,0-1.1-0.5-1.1-1.1v-3.1c0-0.6,0.5-1.1,1.1-1.1c0.6,0,1.1,0.5,1.1,1.1v3.1
				C166.2,234.5,165.7,234.9,165.1,234.9z"/>
			<path class="st0" d="M160.2,234.9c-0.6,0-1.1-0.5-1.1-1.1v-3.1c0-0.6,0.5-1.1,1.1-1.1s1.1,0.5,1.1,1.1v3.1
				C161.3,234.5,160.8,234.9,160.2,234.9z"/>
		</g>
		<path class="st0" d="M187,217.5h-24.9c-0.6,0-1.1-0.5-1.1-1.1s0.5-1.1,1.1-1.1H187c0.6,0,1.1,0.5,1.1,1.1S187.7,217.5,187,217.5z"
			/>
		<path class="st0" d="M195,217.5h-3.6c-0.6,0-1.1-0.5-1.1-1.1s0.5-1.1,1.1-1.1h3.6c0.6,0,1.1,0.5,1.1,1.1S195.6,217.5,195,217.5z"
			/>
	</g>
	<g>
		<g>
			<path class="st0" d="M305.7,233.1H263c-2.2,0-4-1.8-4-4v-5.2c0-2.2,1.8-4,4-4h42.7c2.2,0,4,1.8,4,4v5.2
				C309.7,231.3,307.9,233.1,305.7,233.1z M263,222c-1,0-1.8,0.8-1.8,1.8v5.2c0,1,0.8,1.8,1.8,1.8h42.7c1,0,1.8-0.8,1.8-1.8v-5.2
				c0-1-0.8-1.8-1.8-1.8H263z"/>
			<g>
				<path class="st0" d="M300.7,229.9c-1.9,0-3.5-1.6-3.5-3.5c0-1.9,1.6-3.5,3.5-3.5c1.9,0,3.5,1.6,3.5,3.5
					C304.1,228.4,302.6,229.9,300.7,229.9z M300.7,225.2c-0.7,0-1.3,0.6-1.3,1.3c0,0.7,0.6,1.3,1.3,1.3c0.7,0,1.3-0.6,1.3-1.3
					C301.9,225.7,301.4,225.2,300.7,225.2z"/>
				<path class="st0" d="M295.2,227.5h-6.5c-0.6,0-1.1-0.5-1.1-1.1c0-0.6,0.5-1.1,1.1-1.1h6.5c0.6,0,1.1,0.5,1.1,1.1
					C296.3,227,295.8,227.5,295.2,227.5z"/>
				<path class="st0" d="M285.1,229.1c-0.6,0-1.1-0.5-1.1-1.1v-3.1c0-0.6,0.5-1.1,1.1-1.1c0.6,0,1.1,0.5,1.1,1.1v3.1
					C286.2,228.6,285.7,229.1,285.1,229.1z"/>
				<path class="st0" d="M280.2,229.1c-0.6,0-1.1-0.5-1.1-1.1v-3.1c0-0.6,0.5-1.1,1.1-1.1c0.6,0,1.1,0.5,1.1,1.1v3.1
					C281.3,228.6,280.8,229.1,280.2,229.1z"/>
				<path class="st0" d="M275.5,229.1c-0.6,0-1.1-0.5-1.1-1.1v-3.1c0-0.6,0.5-1.1,1.1-1.1c0.6,0,1.1,0.5,1.1,1.1v3.1
					C276.6,228.6,276.1,229.1,275.5,229.1z"/>
				<path class="st0" d="M270.8,229.1c-0.6,0-1.1-0.5-1.1-1.1v-3.1c0-0.6,0.5-1.1,1.1-1.1c0.6,0,1.1,0.5,1.1,1.1v3.1
					C271.9,228.6,271.4,229.1,270.8,229.1z"/>
				<path class="st0" d="M265.8,229.1c-0.6,0-1.1-0.5-1.1-1.1v-3.1c0-0.6,0.5-1.1,1.1-1.1s1.1,0.5,1.1,1.1v3.1
					C266.9,228.6,266.4,229.1,265.8,229.1z"/>
			</g>
		</g>
		<g>
			<path class="st0" d="M305.7,222H263c-2.2,0-4-1.8-4-4v-5.2c0-2.2,1.8-4,4-4h42.7c2.2,0,4,1.8,4,4v5.2
				C309.7,220.2,307.9,222,305.7,222z M263,210.9c-1,0-1.8,0.8-1.8,1.8v5.2c0,1,0.8,1.8,1.8,1.8h42.7c1,0,1.8-0.8,1.8-1.8v-5.2
				c0-1-0.8-1.8-1.8-1.8H263z"/>
			<g>
				<path class="st0" d="M300.7,218.8c-1.9,0-3.5-1.6-3.5-3.5c0-1.9,1.6-3.5,3.5-3.5c1.9,0,3.5,1.6,3.5,3.5
					C304.1,217.3,302.6,218.8,300.7,218.8z M300.7,214.1c-0.7,0-1.3,0.6-1.3,1.3c0,0.7,0.6,1.3,1.3,1.3c0.7,0,1.3-0.6,1.3-1.3
					C301.9,214.6,301.4,214.1,300.7,214.1z"/>
				<path class="st0" d="M295.2,216.4h-6.5c-0.6,0-1.1-0.5-1.1-1.1c0-0.6,0.5-1.1,1.1-1.1h6.5c0.6,0,1.1,0.5,1.1,1.1
					C296.3,215.9,295.8,216.4,295.2,216.4z"/>
				<path class="st0" d="M285.1,218c-0.6,0-1.1-0.5-1.1-1.1v-3.1c0-0.6,0.5-1.1,1.1-1.1c0.6,0,1.1,0.5,1.1,1.1v3.1
					C286.2,217.5,285.7,218,285.1,218z"/>
				<path class="st0" d="M280.2,218c-0.6,0-1.1-0.5-1.1-1.1v-3.1c0-0.6,0.5-1.1,1.1-1.1c0.6,0,1.1,0.5,1.1,1.1v3.1
					C281.3,217.5,280.8,218,280.2,218z"/>
				<path class="st0" d="M275.5,218c-0.6,0-1.1-0.5-1.1-1.1v-3.1c0-0.6,0.5-1.1,1.1-1.1c0.6,0,1.1,0.5,1.1,1.1v3.1
					C276.6,217.5,276.1,218,275.5,218z"/>
				<path class="st0" d="M270.8,218c-0.6,0-1.1-0.5-1.1-1.1v-3.1c0-0.6,0.5-1.1,1.1-1.1c0.6,0,1.1,0.5,1.1,1.1v3.1
					C271.9,217.5,271.4,218,270.8,218z"/>
				<path class="st0" d="M265.8,218c-0.6,0-1.1-0.5-1.1-1.1v-3.1c0-0.6,0.5-1.1,1.1-1.1s1.1,0.5,1.1,1.1v3.1
					C266.9,217.5,266.4,218,265.8,218z"/>
			</g>
		</g>
		<path class="st0" d="M305.7,210.9H263c-2.2,0-4-1.8-4-4V197c0-0.1,0-0.3,0.1-0.4l4.5-10.8c0.8-2.1,2.8-3.5,5-3.5h31.6
			c2.2,0,4.2,1.4,5,3.5l4.5,10.8c0.1,0.1,0.1,0.3,0.1,0.4v9.8C309.7,209.1,307.9,210.9,305.7,210.9z M261.2,197.3v9.6
			c0,1,0.8,1.8,1.8,1.8h42.7c1,0,1.8-0.8,1.8-1.8v-9.6l-4.4-10.6c0,0,0,0,0,0c-0.4-1.2-1.6-2.1-2.9-2.1h-31.6
			c-1.3,0-2.5,0.8-2.9,2.1c0,0,0,0,0,0L261.2,197.3z"/>
		<path class="st0" d="M308.6,198.1h-48.5c-0.6,0-1.1-0.5-1.1-1.1c0-0.6,0.5-1.1,1.1-1.1h48.5c0.6,0,1.1,0.5,1.1,1.1
			C309.7,197.7,309.2,198.1,308.6,198.1z"/>
		<g>
			<path class="st0" d="M300.6,206.9c-1.9,0-3.5-1.6-3.5-3.5c0-1.9,1.6-3.5,3.5-3.5c1.9,0,3.5,1.6,3.5,3.5
				C304.1,205.3,302.5,206.9,300.6,206.9z M300.6,202.1c-0.7,0-1.3,0.6-1.3,1.3c0,0.7,0.6,1.3,1.3,1.3c0.7,0,1.3-0.6,1.3-1.3
				C301.9,202.7,301.3,202.1,300.6,202.1z"/>
			<path class="st0" d="M295.1,204.5h-6.5c-0.6,0-1.1-0.5-1.1-1.1s0.5-1.1,1.1-1.1h6.5c0.6,0,1.1,0.5,1.1,1.1
				S295.7,204.5,295.1,204.5z"/>
			<path class="st0" d="M285,206.1c-0.6,0-1.1-0.5-1.1-1.1v-3.1c0-0.6,0.5-1.1,1.1-1.1s1.1,0.5,1.1,1.1v3.1
				C286.1,205.6,285.7,206.1,285,206.1z"/>
			<path class="st0" d="M280.1,206.1c-0.6,0-1.1-0.5-1.1-1.1v-3.1c0-0.6,0.5-1.1,1.1-1.1c0.6,0,1.1,0.5,1.1,1.1v3.1
				C281.2,205.6,280.7,206.1,280.1,206.1z"/>
			<path class="st0" d="M275.4,206.1c-0.6,0-1.1-0.5-1.1-1.1v-3.1c0-0.6,0.5-1.1,1.1-1.1s1.1,0.5,1.1,1.1v3.1
				C276.5,205.6,276,206.1,275.4,206.1z"/>
			<path class="st0" d="M270.7,206.1c-0.6,0-1.1-0.5-1.1-1.1v-3.1c0-0.6,0.5-1.1,1.1-1.1c0.6,0,1.1,0.5,1.1,1.1v3.1
				C271.8,205.6,271.3,206.1,270.7,206.1z"/>
			<path class="st0" d="M265.8,206.1c-0.6,0-1.1-0.5-1.1-1.1v-3.1c0-0.6,0.5-1.1,1.1-1.1c0.6,0,1.1,0.5,1.1,1.1v3.1
				C266.9,205.6,266.4,206.1,265.8,206.1z"/>
		</g>
		<path class="st0" d="M292.6,188.7h-24.9c-0.6,0-1.1-0.5-1.1-1.1s0.5-1.1,1.1-1.1h24.9c0.6,0,1.1,0.5,1.1,1.1
			S293.3,188.7,292.6,188.7z"/>
		<path class="st0" d="M300.6,188.7h-3.6c-0.6,0-1.1-0.5-1.1-1.1s0.5-1.1,1.1-1.1h3.6c0.6,0,1.1,0.5,1.1,1.1
			S301.2,188.7,300.6,188.7z"/>
	</g>
	<g>
		<g>
			<path class="st0" d="M364.6,145.7h-42.7c-2.2,0-4-1.8-4-4v-5.2c0-2.2,1.8-4,4-4h42.7c2.2,0,4,1.8,4,4v5.2
				C368.6,143.8,366.8,145.7,364.6,145.7z M321.9,134.6c-1,0-1.8,0.8-1.8,1.8v5.2c0,1,0.8,1.8,1.8,1.8h42.7c1,0,1.8-0.8,1.8-1.8
				v-5.2c0-1-0.8-1.8-1.8-1.8H321.9z"/>
			<g>
				<path class="st0" d="M359.5,142.5c-1.9,0-3.5-1.6-3.5-3.5c0-1.9,1.6-3.5,3.5-3.5s3.5,1.6,3.5,3.5
					C363,140.9,361.5,142.5,359.5,142.5z M359.5,137.7c-0.7,0-1.3,0.6-1.3,1.3c0,0.7,0.6,1.3,1.3,1.3s1.3-0.6,1.3-1.3
					C360.8,138.3,360.2,137.7,359.5,137.7z"/>
				<path class="st0" d="M354,140.1h-6.5c-0.6,0-1.1-0.5-1.1-1.1c0-0.6,0.5-1.1,1.1-1.1h6.5c0.6,0,1.1,0.5,1.1,1.1
					C355.1,139.6,354.6,140.1,354,140.1z"/>
				<path class="st0" d="M344,141.7c-0.6,0-1.1-0.5-1.1-1.1v-3.1c0-0.6,0.5-1.1,1.1-1.1c0.6,0,1.1,0.5,1.1,1.1v3.1
					C345.1,141.2,344.6,141.7,344,141.7z"/>
				<path class="st0" d="M339,141.7c-0.6,0-1.1-0.5-1.1-1.1v-3.1c0-0.6,0.5-1.1,1.1-1.1c0.6,0,1.1,0.5,1.1,1.1v3.1
					C340.1,141.2,339.7,141.7,339,141.7z"/>
				<path class="st0" d="M334.4,141.7c-0.6,0-1.1-0.5-1.1-1.1v-3.1c0-0.6,0.5-1.1,1.1-1.1c0.6,0,1.1,0.5,1.1,1.1v3.1
					C335.5,141.2,335,141.7,334.4,141.7z"/>
				<path class="st0" d="M329.7,141.7c-0.6,0-1.1-0.5-1.1-1.1v-3.1c0-0.6,0.5-1.1,1.1-1.1c0.6,0,1.1,0.5,1.1,1.1v3.1
					C330.8,141.2,330.3,141.7,329.7,141.7z"/>
				<path class="st0" d="M324.7,141.7c-0.6,0-1.1-0.5-1.1-1.1v-3.1c0-0.6,0.5-1.1,1.1-1.1c0.6,0,1.1,0.5,1.1,1.1v3.1
					C325.8,141.2,325.3,141.7,324.7,141.7z"/>
			</g>
		</g>
		<g>
			<path class="st0" d="M364.6,134.6h-42.7c-2.2,0-4-1.8-4-4v-5.2c0-2.2,1.8-4,4-4h42.7c2.2,0,4,1.8,4,4v5.2
				C368.6,132.8,366.8,134.6,364.6,134.6z M321.9,123.5c-1,0-1.8,0.8-1.8,1.8v5.2c0,1,0.8,1.8,1.8,1.8h42.7c1,0,1.8-0.8,1.8-1.8
				v-5.2c0-1-0.8-1.8-1.8-1.8H321.9z"/>
			<g>
				<path class="st0" d="M359.5,131.4c-1.9,0-3.5-1.6-3.5-3.5c0-1.9,1.6-3.5,3.5-3.5s3.5,1.6,3.5,3.5
					C363,129.8,361.5,131.4,359.5,131.4z M359.5,126.6c-0.7,0-1.3,0.6-1.3,1.3c0,0.7,0.6,1.3,1.3,1.3s1.3-0.6,1.3-1.3
					C360.8,127.2,360.2,126.6,359.5,126.6z"/>
				<path class="st0" d="M354,129h-6.5c-0.6,0-1.1-0.5-1.1-1.1c0-0.6,0.5-1.1,1.1-1.1h6.5c0.6,0,1.1,0.5,1.1,1.1
					C355.1,128.5,354.6,129,354,129z"/>
				<path class="st0" d="M344,130.6c-0.6,0-1.1-0.5-1.1-1.1v-3.1c0-0.6,0.5-1.1,1.1-1.1c0.6,0,1.1,0.5,1.1,1.1v3.1
					C345.1,130.1,344.6,130.6,344,130.6z"/>
				<path class="st0" d="M339,130.6c-0.6,0-1.1-0.5-1.1-1.1v-3.1c0-0.6,0.5-1.1,1.1-1.1c0.6,0,1.1,0.5,1.1,1.1v3.1
					C340.1,130.1,339.7,130.6,339,130.6z"/>
				<path class="st0" d="M334.4,130.6c-0.6,0-1.1-0.5-1.1-1.1v-3.1c0-0.6,0.5-1.1,1.1-1.1c0.6,0,1.1,0.5,1.1,1.1v3.1
					C335.5,130.1,335,130.6,334.4,130.6z"/>
				<path class="st0" d="M329.7,130.6c-0.6,0-1.1-0.5-1.1-1.1v-3.1c0-0.6,0.5-1.1,1.1-1.1c0.6,0,1.1,0.5,1.1,1.1v3.1
					C330.8,130.1,330.3,130.6,329.7,130.6z"/>
				<path class="st0" d="M324.7,130.6c-0.6,0-1.1-0.5-1.1-1.1v-3.1c0-0.6,0.5-1.1,1.1-1.1c0.6,0,1.1,0.5,1.1,1.1v3.1
					C325.8,130.1,325.3,130.6,324.7,130.6z"/>
			</g>
		</g>
		<path class="st0" d="M364.6,123.5h-42.7c-2.2,0-4-1.8-4-4v-9.8c0-0.1,0-0.3,0.1-0.4l4.5-10.8c0.8-2.1,2.8-3.5,5-3.5H359
			c2.2,0,4.2,1.4,5,3.5l4.5,10.8c0.1,0.1,0.1,0.3,0.1,0.4v9.8C368.6,121.7,366.8,123.5,364.6,123.5z M320.1,109.8v9.6
			c0,1,0.8,1.8,1.8,1.8h42.7c1,0,1.8-0.8,1.8-1.8v-9.6L362,99.2c0,0,0,0,0,0c-0.4-1.2-1.6-2.1-2.9-2.1h-31.6c-1.3,0-2.5,0.8-2.9,2.1
			c0,0,0,0,0,0L320.1,109.8z"/>
		<path class="st0" d="M367.5,110.7H319c-0.6,0-1.1-0.5-1.1-1.1c0-0.6,0.5-1.1,1.1-1.1h48.5c0.6,0,1.1,0.5,1.1,1.1
			C368.6,110.2,368.1,110.7,367.5,110.7z"/>
		<g>
			<path class="st0" d="M359.5,119.5c-1.9,0-3.5-1.6-3.5-3.5c0-1.9,1.6-3.5,3.5-3.5c1.9,0,3.5,1.6,3.5,3.5
				C362.9,117.9,361.4,119.5,359.5,119.5z M359.5,114.7c-0.7,0-1.3,0.6-1.3,1.3c0,0.7,0.6,1.3,1.3,1.3c0.7,0,1.3-0.6,1.3-1.3
				C360.7,115.3,360.2,114.7,359.5,114.7z"/>
			<path class="st0" d="M354,117.1h-6.5c-0.6,0-1.1-0.5-1.1-1.1c0-0.6,0.5-1.1,1.1-1.1h6.5c0.6,0,1.1,0.5,1.1,1.1
				C355.1,116.6,354.6,117.1,354,117.1z"/>
			<path class="st0" d="M343.9,118.7c-0.6,0-1.1-0.5-1.1-1.1v-3.1c0-0.6,0.5-1.1,1.1-1.1c0.6,0,1.1,0.5,1.1,1.1v3.1
				C345,118.2,344.5,118.7,343.9,118.7z"/>
			<path class="st0" d="M339,118.7c-0.6,0-1.1-0.5-1.1-1.1v-3.1c0-0.6,0.5-1.1,1.1-1.1c0.6,0,1.1,0.5,1.1,1.1v3.1
				C340.1,118.2,339.6,118.7,339,118.7z"/>
			<path class="st0" d="M334.3,118.7c-0.6,0-1.1-0.5-1.1-1.1v-3.1c0-0.6,0.5-1.1,1.1-1.1s1.1,0.5,1.1,1.1v3.1
				C335.4,118.2,334.9,118.7,334.3,118.7z"/>
			<path class="st0" d="M329.6,118.7c-0.6,0-1.1-0.5-1.1-1.1v-3.1c0-0.6,0.5-1.1,1.1-1.1c0.6,0,1.1,0.5,1.1,1.1v3.1
				C330.7,118.2,330.2,118.7,329.6,118.7z"/>
			<path class="st0" d="M324.6,118.7c-0.6,0-1.1-0.5-1.1-1.1v-3.1c0-0.6,0.5-1.1,1.1-1.1s1.1,0.5,1.1,1.1v3.1
				C325.7,118.2,325.3,118.7,324.6,118.7z"/>
		</g>
		<path class="st0" d="M351.5,101.3h-24.9c-0.6,0-1.1-0.5-1.1-1.1c0-0.6,0.5-1.1,1.1-1.1h24.9c0.6,0,1.1,0.5,1.1,1.1
			C352.6,100.8,352.1,101.3,351.5,101.3z"/>
		<path class="st0" d="M359.5,101.3h-3.6c-0.6,0-1.1-0.5-1.1-1.1c0-0.6,0.5-1.1,1.1-1.1h3.6c0.6,0,1.1,0.5,1.1,1.1
			C360.6,100.8,360.1,101.3,359.5,101.3z"/>
	</g>
	<g>
		<g>
			<path class="st0" d="M308.9,66.9h-42.7c-2.2,0-4-1.8-4-4v-5.2c0-2.2,1.8-4,4-4h42.7c2.2,0,4,1.8,4,4v5.2
				C313,65.1,311.2,66.9,308.9,66.9z M266.3,55.8c-1,0-1.8,0.8-1.8,1.8v5.2c0,1,0.8,1.8,1.8,1.8h42.7c1,0,1.8-0.8,1.8-1.8v-5.2
				c0-1-0.8-1.8-1.8-1.8H266.3z"/>
			<g>
				<path class="st0" d="M303.9,63.7c-1.9,0-3.5-1.6-3.5-3.5s1.6-3.5,3.5-3.5s3.5,1.6,3.5,3.5S305.8,63.7,303.9,63.7z M303.9,59
					c-0.7,0-1.3,0.6-1.3,1.3s0.6,1.3,1.3,1.3s1.3-0.6,1.3-1.3S304.6,59,303.9,59z"/>
				<path class="st0" d="M298.4,61.3h-6.5c-0.6,0-1.1-0.5-1.1-1.1s0.5-1.1,1.1-1.1h6.5c0.6,0,1.1,0.5,1.1,1.1S299,61.3,298.4,61.3z"
					/>
				<path class="st0" d="M288.4,62.9c-0.6,0-1.1-0.5-1.1-1.1v-3.1c0-0.6,0.5-1.1,1.1-1.1c0.6,0,1.1,0.5,1.1,1.1v3.1
					C289.5,62.4,289,62.9,288.4,62.9z"/>
				<path class="st0" d="M283.4,62.9c-0.6,0-1.1-0.5-1.1-1.1v-3.1c0-0.6,0.5-1.1,1.1-1.1c0.6,0,1.1,0.5,1.1,1.1v3.1
					C284.5,62.4,284,62.9,283.4,62.9z"/>
				<path class="st0" d="M278.7,62.9c-0.6,0-1.1-0.5-1.1-1.1v-3.1c0-0.6,0.5-1.1,1.1-1.1c0.6,0,1.1,0.5,1.1,1.1v3.1
					C279.8,62.4,279.3,62.9,278.7,62.9z"/>
				<path class="st0" d="M274,62.9c-0.6,0-1.1-0.5-1.1-1.1v-3.1c0-0.6,0.5-1.1,1.1-1.1s1.1,0.5,1.1,1.1v3.1
					C275.1,62.4,274.6,62.9,274,62.9z"/>
				<path class="st0" d="M269.1,62.9c-0.6,0-1.1-0.5-1.1-1.1v-3.1c0-0.6,0.5-1.1,1.1-1.1c0.6,0,1.1,0.5,1.1,1.1v3.1
					C270.2,62.4,269.7,62.9,269.1,62.9z"/>
			</g>
		</g>
		<g>
			<path class="st0" d="M308.9,55.8h-42.7c-2.2,0-4-1.8-4-4v-5.2c0-2.2,1.8-4,4-4h42.7c2.2,0,4,1.8,4,4v5.2
				C313,54,311.2,55.8,308.9,55.8z M266.3,44.7c-1,0-1.8,0.8-1.8,1.8v5.2c0,1,0.8,1.8,1.8,1.8h42.7c1,0,1.8-0.8,1.8-1.8v-5.2
				c0-1-0.8-1.8-1.8-1.8H266.3z"/>
			<g>
				<path class="st0" d="M303.9,52.6c-1.9,0-3.5-1.6-3.5-3.5c0-1.9,1.6-3.5,3.5-3.5s3.5,1.6,3.5,3.5
					C307.4,51.1,305.8,52.6,303.9,52.6z M303.9,47.9c-0.7,0-1.3,0.6-1.3,1.3c0,0.7,0.6,1.3,1.3,1.3s1.3-0.6,1.3-1.3
					C305.2,48.4,304.6,47.9,303.9,47.9z"/>
				<path class="st0" d="M298.4,50.2h-6.5c-0.6,0-1.1-0.5-1.1-1.1s0.5-1.1,1.1-1.1h6.5c0.6,0,1.1,0.5,1.1,1.1S299,50.2,298.4,50.2z"
					/>
				<path class="st0" d="M288.4,51.8c-0.6,0-1.1-0.5-1.1-1.1v-3.1c0-0.6,0.5-1.1,1.1-1.1c0.6,0,1.1,0.5,1.1,1.1v3.1
					C289.5,51.3,289,51.8,288.4,51.8z"/>
				<path class="st0" d="M283.4,51.8c-0.6,0-1.1-0.5-1.1-1.1v-3.1c0-0.6,0.5-1.1,1.1-1.1c0.6,0,1.1,0.5,1.1,1.1v3.1
					C284.5,51.3,284,51.8,283.4,51.8z"/>
				<path class="st0" d="M278.7,51.8c-0.6,0-1.1-0.5-1.1-1.1v-3.1c0-0.6,0.5-1.1,1.1-1.1c0.6,0,1.1,0.5,1.1,1.1v3.1
					C279.8,51.3,279.3,51.8,278.7,51.8z"/>
				<path class="st0" d="M274,51.8c-0.6,0-1.1-0.5-1.1-1.1v-3.1c0-0.6,0.5-1.1,1.1-1.1s1.1,0.5,1.1,1.1v3.1
					C275.1,51.3,274.6,51.8,274,51.8z"/>
				<path class="st0" d="M269.1,51.8c-0.6,0-1.1-0.5-1.1-1.1v-3.1c0-0.6,0.5-1.1,1.1-1.1c0.6,0,1.1,0.5,1.1,1.1v3.1
					C270.2,51.3,269.7,51.8,269.1,51.8z"/>
			</g>
		</g>
		<path class="st0" d="M308.9,44.7h-42.7c-2.2,0-4-1.8-4-4v-9.8c0-0.1,0-0.3,0.1-0.4l4.5-10.8c0.8-2.1,2.8-3.5,5-3.5h31.6
			c2.2,0,4.2,1.4,5,3.5l4.5,10.8c0.1,0.1,0.1,0.3,0.1,0.4v9.8C313,42.9,311.2,44.7,308.9,44.7z M264.5,31.1v9.6c0,1,0.8,1.8,1.8,1.8
			h42.7c1,0,1.8-0.8,1.8-1.8v-9.6l-4.4-10.6c0,0,0,0,0,0c-0.4-1.2-1.6-2.1-2.9-2.1h-31.6c-1.3,0-2.5,0.8-2.9,2.1c0,0,0,0,0,0
			L264.5,31.1z"/>
		<path class="st0" d="M311.9,31.9h-48.5c-0.6,0-1.1-0.5-1.1-1.1s0.5-1.1,1.1-1.1h48.5c0.6,0,1.1,0.5,1.1,1.1S312.5,31.9,311.9,31.9
			z"/>
		<g>
			<path class="st0" d="M303.8,40.7c-1.9,0-3.5-1.6-3.5-3.5c0-1.9,1.6-3.5,3.5-3.5c1.9,0,3.5,1.6,3.5,3.5
				C307.3,39.1,305.7,40.7,303.8,40.7z M303.8,35.9c-0.7,0-1.3,0.6-1.3,1.3c0,0.7,0.6,1.3,1.3,1.3c0.7,0,1.3-0.6,1.3-1.3
				C305.1,36.5,304.5,35.9,303.8,35.9z"/>
			<path class="st0" d="M298.3,38.3h-6.5c-0.6,0-1.1-0.5-1.1-1.1s0.5-1.1,1.1-1.1h6.5c0.6,0,1.1,0.5,1.1,1.1S298.9,38.3,298.3,38.3z
				"/>
			<path class="st0" d="M288.3,39.9c-0.6,0-1.1-0.5-1.1-1.1v-3.1c0-0.6,0.5-1.1,1.1-1.1c0.6,0,1.1,0.5,1.1,1.1v3.1
				C289.4,39.4,288.9,39.9,288.3,39.9z"/>
			<path class="st0" d="M283.3,39.9c-0.6,0-1.1-0.5-1.1-1.1v-3.1c0-0.6,0.5-1.1,1.1-1.1c0.6,0,1.1,0.5,1.1,1.1v3.1
				C284.4,39.4,283.9,39.9,283.3,39.9z"/>
			<path class="st0" d="M278.6,39.9c-0.6,0-1.1-0.5-1.1-1.1v-3.1c0-0.6,0.5-1.1,1.1-1.1c0.6,0,1.1,0.5,1.1,1.1v3.1
				C279.7,39.4,279.3,39.9,278.6,39.9z"/>
			<path class="st0" d="M274,39.9c-0.6,0-1.1-0.5-1.1-1.1v-3.1c0-0.6,0.5-1.1,1.1-1.1c0.6,0,1.1,0.5,1.1,1.1v3.1
				C275.1,39.4,274.6,39.9,274,39.9z"/>
			<path class="st0" d="M269,39.9c-0.6,0-1.1-0.5-1.1-1.1v-3.1c0-0.6,0.5-1.1,1.1-1.1s1.1,0.5,1.1,1.1v3.1
				C270.1,39.4,269.6,39.9,269,39.9z"/>
		</g>
		<path class="st0" d="M295.9,22.5H271c-0.6,0-1.1-0.5-1.1-1.1c0-0.6,0.5-1.1,1.1-1.1h24.9c0.6,0,1.1,0.5,1.1,1.1
			C297,22,296.5,22.5,295.9,22.5z"/>
		<path class="st0" d="M303.8,22.5h-3.6c-0.6,0-1.1-0.5-1.1-1.1c0-0.6,0.5-1.1,1.1-1.1h3.6c0.6,0,1.1,0.5,1.1,1.1
			C304.9,22,304.4,22.5,303.8,22.5z"/>
	</g>
	<g>
		<g>
			<path class="st0" d="M188.9,61.3h-42.7c-2.2,0-4-1.8-4-4v-5.2c0-2.2,1.8-4,4-4h42.7c2.2,0,4,1.8,4,4v5.2
				C193,59.5,191.1,61.3,188.9,61.3z M146.3,50.2c-1,0-1.8,0.8-1.8,1.8v5.2c0,1,0.8,1.8,1.8,1.8h42.7c1,0,1.8-0.8,1.8-1.8v-5.2
				c0-1-0.8-1.8-1.8-1.8H146.3z"/>
			<g>
				<path class="st0" d="M183.9,58.2c-1.9,0-3.5-1.6-3.5-3.5s1.6-3.5,3.5-3.5s3.5,1.6,3.5,3.5S185.8,58.2,183.9,58.2z M183.9,53.4
					c-0.7,0-1.3,0.6-1.3,1.3s0.6,1.3,1.3,1.3s1.3-0.6,1.3-1.3S184.6,53.4,183.9,53.4z"/>
				<path class="st0" d="M178.4,55.8h-6.5c-0.6,0-1.1-0.5-1.1-1.1s0.5-1.1,1.1-1.1h6.5c0.6,0,1.1,0.5,1.1,1.1S179,55.8,178.4,55.8z"
					/>
				<path class="st0" d="M168.4,57.4c-0.6,0-1.1-0.5-1.1-1.1v-3.1c0-0.6,0.5-1.1,1.1-1.1s1.1,0.5,1.1,1.1v3.1
					C169.5,56.9,169,57.4,168.4,57.4z"/>
				<path class="st0" d="M163.4,57.4c-0.6,0-1.1-0.5-1.1-1.1v-3.1c0-0.6,0.5-1.1,1.1-1.1c0.6,0,1.1,0.5,1.1,1.1v3.1
					C164.5,56.9,164,57.4,163.4,57.4z"/>
				<path class="st0" d="M158.7,57.4c-0.6,0-1.1-0.5-1.1-1.1v-3.1c0-0.6,0.5-1.1,1.1-1.1c0.6,0,1.1,0.5,1.1,1.1v3.1
					C159.8,56.9,159.3,57.4,158.7,57.4z"/>
				<path class="st0" d="M154,57.4c-0.6,0-1.1-0.5-1.1-1.1v-3.1c0-0.6,0.5-1.1,1.1-1.1s1.1,0.5,1.1,1.1v3.1
					C155.1,56.9,154.6,57.4,154,57.4z"/>
				<path class="st0" d="M149.1,57.4c-0.6,0-1.1-0.5-1.1-1.1v-3.1c0-0.6,0.5-1.1,1.1-1.1c0.6,0,1.1,0.5,1.1,1.1v3.1
					C150.2,56.9,149.7,57.4,149.1,57.4z"/>
			</g>
		</g>
		<g>
			<path class="st0" d="M188.9,50.2h-42.7c-2.2,0-4-1.8-4-4V41c0-2.2,1.8-4,4-4h42.7c2.2,0,4,1.8,4,4v5.2
				C193,48.4,191.1,50.2,188.9,50.2z M146.3,39.1c-1,0-1.8,0.8-1.8,1.8v5.2c0,1,0.8,1.8,1.8,1.8h42.7c1,0,1.8-0.8,1.8-1.8V41
				c0-1-0.8-1.8-1.8-1.8H146.3z"/>
			<g>
				<path class="st0" d="M183.9,47.1c-1.9,0-3.5-1.6-3.5-3.5c0-1.9,1.6-3.5,3.5-3.5s3.5,1.6,3.5,3.5
					C187.4,45.5,185.8,47.1,183.9,47.1z M183.9,42.3c-0.7,0-1.3,0.6-1.3,1.3c0,0.7,0.6,1.3,1.3,1.3s1.3-0.6,1.3-1.3
					C185.2,42.9,184.6,42.3,183.9,42.3z"/>
				<path class="st0" d="M178.4,44.7h-6.5c-0.6,0-1.1-0.5-1.1-1.1s0.5-1.1,1.1-1.1h6.5c0.6,0,1.1,0.5,1.1,1.1S179,44.7,178.4,44.7z"
					/>
				<path class="st0" d="M168.4,46.3c-0.6,0-1.1-0.5-1.1-1.1V42c0-0.6,0.5-1.1,1.1-1.1s1.1,0.5,1.1,1.1v3.1
					C169.5,45.8,169,46.3,168.4,46.3z"/>
				<path class="st0" d="M163.4,46.3c-0.6,0-1.1-0.5-1.1-1.1V42c0-0.6,0.5-1.1,1.1-1.1c0.6,0,1.1,0.5,1.1,1.1v3.1
					C164.5,45.8,164,46.3,163.4,46.3z"/>
				<path class="st0" d="M158.7,46.3c-0.6,0-1.1-0.5-1.1-1.1V42c0-0.6,0.5-1.1,1.1-1.1c0.6,0,1.1,0.5,1.1,1.1v3.1
					C159.8,45.8,159.3,46.3,158.7,46.3z"/>
				<path class="st0" d="M154,46.3c-0.6,0-1.1-0.5-1.1-1.1V42c0-0.6,0.5-1.1,1.1-1.1s1.1,0.5,1.1,1.1v3.1
					C155.1,45.8,154.6,46.3,154,46.3z"/>
				<path class="st0" d="M149.1,46.3c-0.6,0-1.1-0.5-1.1-1.1V42c0-0.6,0.5-1.1,1.1-1.1c0.6,0,1.1,0.5,1.1,1.1v3.1
					C150.2,45.8,149.7,46.3,149.1,46.3z"/>
			</g>
		</g>
		<path class="st0" d="M188.9,39.1h-42.7c-2.2,0-4-1.8-4-4v-9.8c0-0.1,0-0.3,0.1-0.4l4.5-10.8c0.8-2.1,2.8-3.5,5-3.5h31.6
			c2.2,0,4.2,1.4,5,3.5l4.5,10.8c0.1,0.1,0.1,0.3,0.1,0.4v9.8C193,37.3,191.1,39.1,188.9,39.1z M144.4,25.5v9.6c0,1,0.8,1.8,1.8,1.8
			h42.7c1,0,1.8-0.8,1.8-1.8v-9.6l-4.4-10.6c0,0,0,0,0,0c-0.4-1.2-1.6-2.1-2.9-2.1h-31.6c-1.3,0-2.5,0.8-2.9,2.1c0,0,0,0,0,0
			L144.4,25.5z"/>
		<path class="st0" d="M191.9,26.4h-48.5c-0.6,0-1.1-0.5-1.1-1.1s0.5-1.1,1.1-1.1h48.5c0.6,0,1.1,0.5,1.1,1.1S192.5,26.4,191.9,26.4
			z"/>
		<g>
			<path class="st0" d="M183.8,35.1c-1.9,0-3.5-1.6-3.5-3.5c0-1.9,1.6-3.5,3.5-3.5c1.9,0,3.5,1.6,3.5,3.5
				C187.3,33.6,185.7,35.1,183.8,35.1z M183.8,30.4c-0.7,0-1.3,0.6-1.3,1.3c0,0.7,0.6,1.3,1.3,1.3c0.7,0,1.3-0.6,1.3-1.3
				C185.1,31,184.5,30.4,183.8,30.4z"/>
			<path class="st0" d="M178.3,32.8h-6.5c-0.6,0-1.1-0.5-1.1-1.1c0-0.6,0.5-1.1,1.1-1.1h6.5c0.6,0,1.1,0.5,1.1,1.1
				C179.4,32.3,178.9,32.8,178.3,32.8z"/>
			<path class="st0" d="M168.3,34.3c-0.6,0-1.1-0.5-1.1-1.1v-3.1c0-0.6,0.5-1.1,1.1-1.1c0.6,0,1.1,0.5,1.1,1.1v3.1
				C169.4,33.8,168.9,34.3,168.3,34.3z"/>
			<path class="st0" d="M163.3,34.3c-0.6,0-1.1-0.5-1.1-1.1v-3.1c0-0.6,0.5-1.1,1.1-1.1c0.6,0,1.1,0.5,1.1,1.1v3.1
				C164.4,33.8,163.9,34.3,163.3,34.3z"/>
			<path class="st0" d="M158.6,34.3c-0.6,0-1.1-0.5-1.1-1.1v-3.1c0-0.6,0.5-1.1,1.1-1.1c0.6,0,1.1,0.5,1.1,1.1v3.1
				C159.7,33.8,159.3,34.3,158.6,34.3z"/>
			<path class="st0" d="M154,34.3c-0.6,0-1.1-0.5-1.1-1.1v-3.1c0-0.6,0.5-1.1,1.1-1.1c0.6,0,1.1,0.5,1.1,1.1v3.1
				C155.1,33.8,154.6,34.3,154,34.3z"/>
			<path class="st0" d="M149,34.3c-0.6,0-1.1-0.5-1.1-1.1v-3.1c0-0.6,0.5-1.1,1.1-1.1s1.1,0.5,1.1,1.1v3.1
				C150.1,33.8,149.6,34.3,149,34.3z"/>
		</g>
		<path class="st0" d="M175.9,16.9H151c-0.6,0-1.1-0.5-1.1-1.1s0.5-1.1,1.1-1.1h24.9c0.6,0,1.1,0.5,1.1,1.1S176.5,16.9,175.9,16.9z"
			/>
		<path class="st0" d="M183.8,16.9h-3.6c-0.6,0-1.1-0.5-1.1-1.1s0.5-1.1,1.1-1.1h3.6c0.6,0,1.1,0.5,1.1,1.1S184.4,16.9,183.8,16.9z"
			/>
	</g>
	<g>
		<g>
			<g>
				<line class="st1" x1="66.5" y1="72.3" x2="66.5" y2="72.3"/>
				<path class="st2" d="M68.3,74.7c5,6,21.2,20.5,53.3,8.7c35.8-13.1,66.6,17.3,72.5,23.6"/>
				<line class="st1" x1="195.1" y1="108.1" x2="195.1" y2="108.1"/>
			</g>
		</g>
		<path class="st3" d="M221.4,98.9c0,0,17.3-27.4,48.8-12.8s16,96.2,16,96.2"/>
		<path class="st3" d="M343.2,94.9c0,0-20.8-26.8-39.2-13.1s-20.5,53.5-60.5,49.6"/>
		<path class="st3" d="M288.4,66.9c0,0-30.7,44.5-55.7,11S211.3,50,192.9,43.5"/>
		<path class="st3" d="M165.2,60.4c0,0-12.5,15.5,4.2,52.1s-17.2,48.1-17.2,48.1"/>
		<path class="st3" d="M126.5,168.4c0,0-5.2,20.6,33.8,20.3c39-0.3,31.3,23.2,31.3,23.2"/>
		<path class="st3" d="M88.7,196.8c0,0,21.3,27.1,50.9,5.6s84.7-31.1,121.6-11.3"/>
		<path class="st3" d="M40.9,90.4c0,0-7.4,21.6,22.5,42s29.9,38.8,22,50.8"/>
		<path class="st3" d="M62.4,46.3c0,0,25.6-29.6,60.2-4.8s3.6,76.1,3.6,76.1"/>
		<path class="st3" d="M141.9,29.7c0,0-69.7,11.8-75.4,147"/>
		<path class="st3" d="M153.4,246.8c0,0-31.6-14.9-34.3-45.5s-31.9-13.8-31.9-13.8"/>
		<path class="st3" d="M203.5,230.9c0,0,46.3,3.7,34.4-20.2s-45.8-30.2-28.7-61"/>
		<path class="st3" d="M259,205.3c0,0-29.3,15.4-54.3-8.6s-67.3-32.5-116,24.1"/>
		<path class="st3" d="M344,145.7c0,0-36.6,26.8-71.1,19.6s-74.3,15-72.7,51.2"/>
		<path class="st3" d="M309.7,203.4c0,0,45.7-16.6,1-51s-18.9-84.5-18.9-84.5"/>
		<path class="st3" d="M147.9,124c0,0,29.2-3.5,42.7,41.2C204,210,259,202.1,259,202.1"/>
		<path class="st3" d="M177,61.7c0,0,57.1,1.3,69.1,41.6c12,40.3,71.8,27.3,71.8,27.3"/>
		<path class="st3" d="M192.1,30.8c0,0,64.6,5.3,69.1,72.2s16.4,80.1,16.4,80.1"/>
		<path class="st3" d="M48.6,90.1c0,0,42.3,27.6,91.1,16.9s80.9-65.5,122.5-57.9"/>
	</g>
</g>
</svg>
